<?xml version="1.0" standalone="no"?>
<!DOCTYPE svg PUBLIC "-//W3C//DTD SVG 20010904//EN"
 "http://www.w3.org/TR/2001/REC-SVG-20010904/DTD/svg10.dtd">
<svg version="1.0" xmlns="http://www.w3.org/2000/svg"
 width="512.000000pt" height="512.000000pt" viewBox="0 0 512.000000 512.000000"
 preserveAspectRatio="xMidYMid meet">
<metadata>
Created by potrace 1.11, written by Peter Selinger 2001-2013
</metadata>
<g transform="translate(0.000000,512.000000) scale(0.100000,-0.100000)"
fill="#000000" stroke="none">
<path d="M2379 5116 c-2 -2 -40 -6 -83 -10 -44 -4 -82 -8 -85 -10 -3 -2 -31
-7 -61 -11 -30 -3 -75 -11 -100 -17 -25 -5 -56 -12 -70 -14 -52 -10 -236 -66
-326 -100 -385 -144 -758 -404 -1024 -714 -64 -74 -76 -89 -143 -180 -208
-280 -367 -643 -436 -995 -40 -200 -46 -267 -45 -515 0 -184 3 -241 19 -345 3
-16 7 -43 9 -60 37 -265 165 -623 307 -860 10 -16 27 -46 38 -65 19 -36 131
-195 166 -239 162 -197 306 -337 489 -475 321 -240 732 -415 1112 -471 22 -4
50 -8 64 -11 144 -26 531 -26 708 1 75 12 90 14 142 25 30 6 66 13 80 16 111
21 368 110 505 175 657 311 1148 878 1364 1576 18 56 34 113 37 128 3 15 11
55 19 89 36 154 49 296 50 521 0 166 -6 285 -19 360 -3 17 -8 44 -10 60 -3 17
-9 53 -15 80 -6 28 -13 61 -15 75 -31 156 -115 389 -206 572 -335 671 -954
1167 -1680 1344 -58 14 -116 28 -130 30 -70 11 -86 14 -195 30 -44 6 -460 15
-466 10z m511 -1296 c11 -11 20 -30 21 -42 0 -13 1 -166 1 -340 1 -175 4 -318
7 -319 3 -1 284 -2 625 -3 l619 -1 16 -24 c14 -22 16 -110 16 -895 l1 -871
-22 -22 -22 -22 -971 -1 c-917 0 -971 1 -972 18 0 9 -1 171 -1 359 -1 240 -4
343 -12 345 -6 2 -295 3 -641 3 l-631 -1 0 918 0 917 973 0 c955 0 974 0 993
-19z"/>
</g>
</svg>
