<?xml version="1.0" encoding="UTF-8" standalone="no"?>
<svg
   xmlns:dc="http://purl.org/dc/elements/1.1/"
   xmlns:cc="http://creativecommons.org/ns#"
   xmlns:rdf="http://www.w3.org/1999/02/22-rdf-syntax-ns#"
   xmlns:svg="http://www.w3.org/2000/svg"
   xmlns="http://www.w3.org/2000/svg"
   xmlns:sodipodi="http://sodipodi.sourceforge.net/DTD/sodipodi-0.dtd"
   xmlns:inkscape="http://www.inkscape.org/namespaces/inkscape"
   inkscape:version="1.0beta2 (2b71d25, 2019-12-03)"
   sodipodi:docname="docs-logo-light.svg"
   width="550.63513mm"
   height="150.735mm"
   viewBox="0 0 550.63513 150.735"
   version="1.1"
   id="svg895">
  <sodipodi:namedview
     inkscape:current-layer="svg895"
     inkscape:window-maximized="0"
     inkscape:window-y="23"
     inkscape:window-x="1680"
     inkscape:cy="284.85354"
     inkscape:cx="481.23442"
     inkscape:zoom="0.35557424"
     showgrid="false"
     id="namedview921"
     inkscape:window-height="1551"
     inkscape:window-width="1280"
     inkscape:pageshadow="2"
     inkscape:pageopacity="0"
     guidetolerance="10"
     gridtolerance="10"
     objecttolerance="10"
     borderopacity="1"
     inkscape:document-rotation="0"
     bordercolor="#666666"
     pagecolor="#ffffff" />
  <defs
     id="defs889">
    <rect
       x="-287.40283"
       y="108.72565"
       width="90.871635"
       height="47.573975"
       id="rect1610" />
    <rect
       x="-295.42093"
       y="134.38353"
       width="210.60838"
       height="94.078873"
       id="rect1604" />
  </defs>
  <metadata
     id="metadata892">
    <rdf:RDF>
      <cc:Work
         rdf:about="">
        <dc:format>image/svg+xml</dc:format>
        <dc:type
           rdf:resource="http://purl.org/dc/dcmitype/StillImage" />
        <dc:title />
      </cc:Work>
    </rdf:RDF>
  </metadata>
  <rect
     style="fill:#eff0eb;fill-opacity:1;fill-rule:evenodd;stroke-width:4.99999;stroke-linecap:square;stroke-linejoin:round;paint-order:markers stroke fill"
     id="rect873"
     width="19.345022"
     height="140.31758"
     x="21.166283"
     y="5.2087097" />
  <text
     transform="translate(238.41301,-264.81107)"
     style="font-style:normal;font-weight:normal;font-size:10.58329999999999949px;line-height:1.25;font-family:sans-serif;white-space:pre;shape-inside:url(#rect1604);fill:#000000;fill-opacity:1;stroke:none;"
     id="text1602"
     xml:space="preserve" />
  <g
     transform="matrix(12.105539,0,0,12.105539,3560.2391,-1308.9841)"
     style="font-style:normal;font-variant:normal;font-weight:normal;font-stretch:normal;font-size:10.5833px;line-height:1.25;font-family:'Intro Bold';-inkscape-font-specification:'Intro Bold, ';white-space:pre;shape-inside:url(#rect1610);fill:#eff0eb;fill-opacity:1;stroke:none;stroke-width:0.0826068"
     id="text1608"
     aria-label="Docs">
    <path
       style="fill:#eff0eb;fill-opacity:1;stroke-width:0.00436664"
       id="path1614"
       d="m -286.53451,110.58922 v 7.39773 h 2.75165 c 2.39183,0 3.66183,-1.83091 3.63008,-3.72532 0,-1.88383 -1.27,-3.67241 -3.63008,-3.67241 z m 1.57691,5.96898 v -4.54023 h 1.15358 c 1.34408,0 2.07432,1.06891 2.07432,2.25424 0,1.18533 -0.70908,2.28599 -2.07432,2.28599 z"
       inkscape:connector-curvature="0" />
    <path
       style="fill:#eff0eb;fill-opacity:1;stroke-width:0.00436664"
       id="path1616"
       d="m -273.96519,115.41521 c 0,-1.79916 -1.36525,-2.68816 -2.73049,-2.67758 -1.34408,0.0106 -2.67758,0.91017 -2.67758,2.67758 0,1.78858 1.36525,2.67757 2.71991,2.67757 1.34408,0 2.68816,-0.88899 2.68816,-2.67757 z m -3.93699,0 c 0,-0.92075 0.62442,-1.37583 1.24883,-1.37583 0.62442,0 1.21708,0.46566 1.21708,1.37583 0,0.93133 -0.62441,1.39699 -1.24883,1.38641 -0.61383,0 -1.21708,-0.46567 -1.21708,-1.38641 z"
       inkscape:connector-curvature="0" />
    <path
       style="fill:#eff0eb;fill-opacity:1;stroke-width:0.00436664"
       id="path1618"
       d="m -267.95404,114.72729 c -0.23283,-1.33349 -1.35466,-2.00024 -2.50824,-2.00024 -1.34408,0 -2.7305,0.89958 -2.7305,2.68816 0,1.79916 1.37583,2.68816 2.71991,2.67757 1.17475,-0.0106 2.32833,-0.6985 2.53999,-2.06374 h -1.40757 c -0.17992,0.53975 -0.62442,0.79375 -1.09008,0.79375 -0.635,0 -1.29117,-0.48684 -1.29117,-1.40758 0,-0.91017 0.65617,-1.37583 1.29117,-1.38641 0.45508,-0.0106 0.88899,0.22224 1.06891,0.69849 z"
       inkscape:connector-curvature="0" />
    <path
       style="fill:#eff0eb;fill-opacity:1;stroke-width:0.00436664"
       id="path1620"
       d="m -267.22958,116.4312 c 0.0529,1.35467 1.22766,1.69333 2.38124,1.69333 1.15358,0 2.26483,-0.45508 2.29658,-1.67216 0.0317,-1.36524 -1.27,-1.46049 -2.413,-1.59808 -0.32808,-0.0318 -0.73024,-0.0847 -0.73024,-0.46566 0,-0.33867 0.35983,-0.52917 0.78316,-0.52917 0.42333,0 0.78316,0.14817 0.79375,0.51858 h 1.39699 c 0.0529,-1.07949 -0.99483,-1.62982 -2.21191,-1.62982 -1.24883,0 -2.19074,0.53974 -2.19074,1.68274 0,1.23825 1.3335,1.37583 2.36008,1.51341 0.35983,0.0529 0.73024,0.0952 0.73024,0.508 -0.0106,0.45508 -0.4445,0.58208 -0.87841,0.58208 -0.42333,0.0106 -0.8255,-0.17991 -0.83608,-0.60325 z"
       inkscape:connector-curvature="0" />
  </g>
</svg>
