<?xml version="1.0" encoding="UTF-8"?>
<svg width="150mm" height="155.54mm" version="1.1" viewBox="0 0 150 155.54" xmlns="http://www.w3.org/2000/svg">
 <g transform="translate(.97023)">
  <path d="m16.58 108.81-12.216-35.983 12.829-39.556 28.865-21.916 28.865-7.4836 29.934 9.6217 26.727 21.382 11.76 45.436-8.0799 29.256z" fill="#eff0eb" fill-rule="evenodd" stroke="#000" stroke-width=".26458px"/>
  <path d="m16.58 108.81s17.838-26.649 22.301-29.86c2.5868-1.8612 17.009 11.717 17.009 11.717s8.509-22.954 16.442-37.042c4.2676-7.5784 16.285 24.893 16.285 24.893s4.3472-5.4485 7.819-9.9302c3.4753-4.4864 8.4334 23.69 13.935 25.844 4.4983 1.7605 6.3142-14.478 11.623-12.792 4.1361 1.3131 13.271 27.926 13.271 27.926l-30.238 26.458-27.214 6.8035-35.53-8.3154z" fill="#2e1046" fill-rule="evenodd"/>
  <g transform="translate(108.28,355.98)">
   <g stroke-width=".52917">
    <path d="m-15.648-305.85h-10.615v-10.146h10.615c0.20756 0 0.37572 0.16817 0.37572 0.37572v9.394c0 0.20772-0.16833 0.37589-0.37572 0.37589z" fill="#e43d91"/>
    <path d="m-22.657-309.54-3.6057 3.6926v-10.146l3.5761-3.6624c0.11769-0.1205 0.32227-0.0372 0.32227 0.13128v9.265c1.57e-4 0.26883-0.10503 0.52686-0.29274 0.7191z" fill="#a72973"/>
    <path d="m-22.74-309.84h-10.615v-10.145h10.615c0.20756 0 0.37573 0.16817 0.37573 0.37573v9.394c1.57e-4 0.20756-0.16817 0.37573-0.37573 0.37573z" fill="#ef5a9d"/>
   </g>
   <g transform="matrix(.29536 0 0 .29536 69.204 -262.42)" fill="#2e1046" stroke-width="1.7916">
    <path d="m-350.27-128.35c-1.7563 0-3.1808-1.424-3.1808-3.1808v-62.339c0-1.7568 1.424-3.1808 3.1808-3.1808 1.7563 0 3.1808 1.424 3.1808 3.1808v62.339c-5.3e-4 1.7568-1.4245 3.1808-3.1808 3.1808z"/>
    <path d="m-350.27-197.05c-0.58208 0-1.1208 0.16774-1.5902 0.44132 0.94668 0.55086 1.5902 1.5653 1.5902 2.7395v62.339c0 1.1742-0.64347 2.1886-1.5902 2.7395 0.46938 0.27305 1.0081 0.44133 1.5902 0.44133 1.7563 0 3.1808-1.424 3.1808-3.1803v-62.34c-5.3e-4 -1.7568-1.4245-3.1808-3.1808-3.1808z"/>
   </g>
  </g>
  <path d="m74.03 1e-3c-40.818 0-74.035 33.217-74.035 74.035s33.217 74.035 74.035 74.035 74.035-33.217 74.035-74.035-33.217-74.035-74.035-74.035zm0 12c34.332 0 62.035 27.703 62.035 62.035s-27.703 62.035-62.035 62.035-62.035-27.703-62.035-62.035 27.703-62.035 62.035-62.035z" color="#000000" color-rendering="auto" dominant-baseline="auto" fill="#2e1046" image-rendering="auto" shape-rendering="auto" solid-color="#000000" style="font-feature-settings:normal;font-variant-alternates:normal;font-variant-caps:normal;font-variant-ligatures:normal;font-variant-numeric:normal;font-variant-position:normal;isolation:auto;mix-blend-mode:normal;paint-order:stroke fill markers;shape-padding:0;text-decoration-color:#000000;text-decoration-line:none;text-decoration-style:solid;text-indent:0;text-orientation:mixed;text-transform:none;white-space:normal"/>
 </g>
</svg>
