<?xml version="1.0" encoding="UTF-8"?>
<svg width="291mm" height="150.74mm" version="1.1" viewBox="0 0 291 150.74" xmlns="http://www.w3.org/2000/svg" xmlns:cc="http://creativecommons.org/ns#" xmlns:dc="http://purl.org/dc/elements/1.1/" xmlns:rdf="http://www.w3.org/1999/02/22-rdf-syntax-ns#">
 <metadata>
  <rdf:RDF>
   <cc:Work rdf:about="">
    <dc:format>image/svg+xml</dc:format>
    <dc:type rdf:resource="http://purl.org/dc/dcmitype/StillImage"/>
   </cc:Work>
  </rdf:RDF>
 </metadata>
 <text transform="translate(238.41 -264.81)" fill="#000000" font-family="sans-serif" font-size="10.583px" style="line-height:1.25;shape-inside:url(#rect1604);white-space:pre" xml:space="preserve"/>
 <g transform="matrix(12.106 0 0 12.106 3468.7 -1309)" fill="#eff0eb" stroke-width=".0043666" style="shape-inside:url(#rect1610);white-space:pre" aria-label="Docs">
  <path d="m-286.53 110.59v7.3977h2.7516c2.3918 0 3.6618-1.8309 3.6301-3.7253 0-1.8838-1.27-3.6724-3.6301-3.6724zm1.5769 5.969v-4.5402h1.1536c1.3441 0 2.0743 1.0689 2.0743 2.2542s-0.70908 2.286-2.0743 2.286z"/>
  <path d="m-273.97 115.42c0-1.7992-1.3652-2.6882-2.7305-2.6776-1.3441 0.0106-2.6776 0.91017-2.6776 2.6776 0 1.7886 1.3652 2.6776 2.7199 2.6776 1.3441 0 2.6882-0.88899 2.6882-2.6776zm-3.937 0c0-0.92075 0.62442-1.3758 1.2488-1.3758 0.62442 0 1.2171 0.46566 1.2171 1.3758 0 0.93133-0.62441 1.397-1.2488 1.3864-0.61383 0-1.2171-0.46567-1.2171-1.3864z"/>
  <path d="m-267.95 114.73c-0.23283-1.3335-1.3547-2.0002-2.5082-2.0002-1.3441 0-2.7305 0.89958-2.7305 2.6882 0 1.7992 1.3758 2.6882 2.7199 2.6776 1.1748-0.0106 2.3283-0.6985 2.54-2.0637h-1.4076c-0.17992 0.53975-0.62442 0.79375-1.0901 0.79375-0.635 0-1.2912-0.48684-1.2912-1.4076 0-0.91017 0.65617-1.3758 1.2912-1.3864 0.45508-0.0106 0.88899 0.22224 1.0689 0.69849z"/>
  <path d="m-267.23 116.43c0.0529 1.3547 1.2277 1.6933 2.3812 1.6933s2.2648-0.45508 2.2966-1.6722c0.0317-1.3652-1.27-1.4605-2.413-1.5981-0.32808-0.0318-0.73024-0.0847-0.73024-0.46566 0-0.33867 0.35983-0.52917 0.78316-0.52917s0.78316 0.14817 0.79375 0.51858h1.397c0.0529-1.0795-0.99483-1.6298-2.2119-1.6298-1.2488 0-2.1907 0.53974-2.1907 1.6827 0 1.2382 1.3335 1.3758 2.3601 1.5134 0.35983 0.0529 0.73024 0.0952 0.73024 0.508-0.0106 0.45508-0.4445 0.58208-0.87841 0.58208-0.42333 0.0106-0.8255-0.17991-0.83608-0.60325z"/>
 </g>
</svg>
