<?xml version="1.0" encoding="UTF-8"?>
<svg width="742.71mm" height="155.54mm" version="1.1" viewBox="0 0 742.71228 155.53955" xmlns="http://www.w3.org/2000/svg"><g fill="#eff0eb" stroke-width=".26458px" aria-label="Routegy"><path d="m232.79 78.442c11.728-5.7174 18.325-17.152 18.325-30.2 0-18.178-12.754-35.184-36.21-35.184-14.66-0.1466-29.173 0-43.833 0v102.62h21.99v-33.865h18.325l21.11 33.865h23.456v-3.0786zm-40.022-14.66v-31.519h21.99c9.3824 0 15.1 6.8902 15.1 15.54 0.1466 8.796-5.864 15.979-15.1 15.979z"/><path d="m337.73 80.201c0-24.922-18.911-37.236-37.823-37.09-18.618 0.1466-37.09 12.608-37.09 37.09 0 24.775 18.911 37.09 37.676 37.09 18.618 0 37.236-12.314 37.236-37.09zm-54.535 0c0-12.754 8.6494-19.058 17.299-19.058s16.859 6.4504 16.859 19.058c0 12.901-8.6494 19.351-17.299 19.205-8.5028 0-16.859-6.4504-16.859-19.205z"/><path d="m399.3 45.163v40.022c0 9.529-6.3038 15.686-14.513 15.54-7.1834 0-12.608-5.131-12.168-15.1v-40.462h-20.671v40.462c0 17.592 5.864 31.226 26.241 31.226 8.796 0 18.618-3.0786 22.576-11.288 0 13.634 15.833 12.608 25.802 10.262l-0.1466-12.754c-6.3038 0.4398-6.597-1.9058-6.597-8.5028v-49.404z"/><path d="m468.42 23.32h-16.419l-2.199 21.99h-14.807v14.074l13.341 1.3194v27.854c0 29.027 21.55 32.985 45.886 26.241l-1.9058-15.54c-11.728 4.2514-23.896 3.5184-23.896-11.142v-27.414h23.016v-15.393h-23.016z"/><path d="m540.14 43.404c-18.765 0-36.65 11.581-37.09 36.21 0 23.896 16.712 38.409 40.462 37.969 9.3824 0 19.058-2.3456 27.414-6.3038l-2.3456-14.953c-4.2514 1.9058-10.555 3.5184-16.859 4.2514-3.0786 0.4398-6.4504 0.2932-9.3824 0.1466-9.8222-0.733-18.032-4.9844-18.765-15.979h47.938c5.4242-24.042-5.5708-41.341-31.372-41.341zm0 15.686c7.6232 0 15.1 3.2252 14.66 12.461h-31.079c1.6126-8.2096 8.6494-12.461 16.419-12.461z"/><path d="m634.52 120.08c0 26.241-26.388 20.524-42.807 11.581l-2.6388 15.833c28.734 15.246 65.237 10.409 65.237-28.147v-68.316c-9.3824-3.9582-19.498-6.4504-30.053-6.4504-21.697-0.4398-40.168 10.115-40.168 36.943 0 30.2 23.163 45.593 50.43 32.692zm-0.2932-22.723c-14.807 8.2096-30.2 2.932-29.76-15.979 0.4398-13.927 7.0368-19.938 17.739-19.938 3.9582 0 8.063 0.4398 12.021 1.466z"/><path d="m742.72 47.509v-2.3456h-20.817l-8.5028 24.042-8.063 25.948h-0.4398l-9.2358-26.095-9.529-23.896h-21.55v2.3456l30.933 68.462-2.6388 7.33c-4.1048 11.728-10.115 16.126-21.697 10.995l-2.199 14.22c25.655 9.3824 34.891-2.7854 43.833-25.802z"/></g><path d="m16.58 108.81-12.216-35.983 12.829-39.556 28.865-21.916 28.865-7.4836l29.934 9.6217 26.727 21.382 11.76 45.436-8.0799 29.256z" fill="#eff0eb" fill-rule="evenodd" stroke="#000" stroke-width=".26458px"/><path d="m16.58 108.81s17.838-26.649 22.301-29.86c2.5868-1.8612 17.009 11.717 17.009 11.717s8.509-22.954 16.442-37.042c4.2676-7.5784 16.285 24.893 16.285 24.893s4.3472-5.4485 7.819-9.9302c3.4753-4.4864 8.4334 23.69 13.935 25.844 4.4983 1.7605 6.3142-14.478 11.623-12.792 4.1361 1.3131 13.271 27.926 13.271 27.926l-30.238 26.458-27.214 6.8035-35.53-8.3154z" fill="#2e1046" fill-rule="evenodd"/><g transform="translate(108.28 355.98)"><g stroke-width=".52917"><path d="m-15.648-305.85h-10.615v-10.146h10.615c0.20756 0 0.37572 0.16817 0.37572 0.37572v9.394c0 0.20772-0.16833 0.37589-0.37572 0.37589z" fill="#e43d91"/><path d="m-22.657-309.54-3.6057 3.6926v-10.146l3.5761-3.6624c0.11769-0.1205 0.32227-0.0372 0.32227 0.13128v9.265c1.57e-4 0.26883-0.10503 0.52686-0.29274 0.7191z" fill="#a72973"/><path d="m-22.74-309.84h-10.615v-10.145h10.615c0.20756 0 0.37573 0.16817 0.37573 0.37573v9.394c1.57e-4 0.20756-0.16817 0.37573-0.37573 0.37573z" fill="#ef5a9d"/></g><g transform="matrix(.29536 0 0 .29536 69.204 -262.42)" fill="#2e1046" stroke-width="1.7916"><path d="m-350.27-128.35c-1.7563 0-3.1808-1.424-3.1808-3.1808v-62.339c0-1.7568 1.424-3.1808 3.1808-3.1808 1.7563 0 3.1808 1.424 3.1808 3.1808v62.339c-5.3e-4 1.7568-1.4245 3.1808-3.1808 3.1808z"/><path d="m-350.27-197.05c-0.58208 0-1.1208 0.16774-1.5902 0.44132 0.94668 0.55086 1.5902 1.5653 1.5902 2.7395v62.339c0 1.1742-0.64347 2.1886-1.5902 2.7395 0.46938 0.27305 1.0081 0.44133 1.5902 0.44133 1.7563 0 3.1808-1.424 3.1808-3.1803v-62.34c-5.3e-4 -1.7568-1.4245-3.1808-3.1808-3.1808z"/></g></g><path d="m74.03 1e-3c-40.818 0-74.035 33.217-74.035 74.035s33.217 74.035 74.035 74.035 74.035-33.217 74.035-74.035-33.217-74.035-74.035-74.035zm0 12c34.332 0 62.035 27.703 62.035 62.035s-27.703 62.035-62.035 62.035-62.035-27.703-62.035-62.035 27.703-62.035 62.035-62.035z" color="#000000" color-rendering="auto" dominant-baseline="auto" fill="#2e1046" image-rendering="auto" shape-rendering="auto" solid-color="#000000" style="font-feature-settings:normal;font-variant-alternates:normal;font-variant-caps:normal;font-variant-ligatures:normal;font-variant-numeric:normal;font-variant-position:normal;isolation:auto;mix-blend-mode:normal;paint-order:stroke fill markers;shape-padding:0;text-decoration-color:#000000;text-decoration-line:none;text-decoration-style:solid;text-indent:0;text-orientation:mixed;text-transform:none;white-space:normal"/></svg>
