<?xml version="1.0" encoding="UTF-8"?>
<svg width="105mm" height="82.09mm" version="1.1" viewBox="0 0 105 82.089996" xmlns="http://www.w3.org/2000/svg">
 <g transform="translate(0,-214.91)">
  <g transform="matrix(5.8064 0 0 5.8064 -5291.7 7072.4)" stroke-width=".15702">
   <path d="m929.06-1166.9h-10.615v-10.146h10.615c0.20756 0 0.37573 0.1682 0.37573 0.3757v9.394c0 0.2077-0.16833 0.3759-0.37573 0.3759z" fill="#e43d91"/>
   <path d="m922.05-1170.6-3.6057 3.6926v-10.146l3.5761-3.6624c0.11768-0.1205 0.32227-0.037 0.32227 0.1313v9.265c1.6e-4 0.2688-0.10503 0.5269-0.29273 0.7191z" fill="#a72973"/>
   <path d="m921.97-1170.9h-10.615v-10.145h10.615c0.20756 0 0.37573 0.1681 0.37573 0.3757v9.3939c1.6e-4 0.2076-0.16817 0.3758-0.37573 0.3758z" fill="#ef5a9d"/>
  </g>
 </g>
</svg>
