<?xml version="1.0" encoding="UTF-8" standalone="no"?>
<svg
   xmlns:dc="http://purl.org/dc/elements/1.1/"
   xmlns:cc="http://creativecommons.org/ns#"
   xmlns:rdf="http://www.w3.org/1999/02/22-rdf-syntax-ns#"
   xmlns:svg="http://www.w3.org/2000/svg"
   xmlns="http://www.w3.org/2000/svg"
   height="100%"
   width="100%"
   version="1.1"
   id="svg3001"
   viewBox="0 -256 1850 1850">
  <metadata
     id="metadata3011">
    <rdf:RDF>
      <cc:Work
         rdf:about="">
        <dc:format>image/svg+xml</dc:format>
        <dc:type
           rdf:resource="http://purl.org/dc/dcmitype/StillImage" />
        <dc:title></dc:title>
      </cc:Work>
    </rdf:RDF>
  </metadata>
  <defs
     id="defs3009" />
  <g
     style="fill:#2e1046;fill-opacity:1"
     id="g3003"
     transform="matrix(1,0,0,-1,227.79661,1305.4576)">
    <path
       style="fill:#2e1046;fill-opacity:1"
       id="path3005"
       d="m 384,224 v -64 q 0,-13 -9.5,-22.5 Q 365,128 352,128 h -64 q -13,0 -22.5,9.5 Q 256,147 256,160 v 64 q 0,13 9.5,22.5 9.5,9.5 22.5,9.5 h 64 q 13,0 22.5,-9.5 Q 384,237 384,224 z m 0,256 v -64 q 0,-13 -9.5,-22.5 Q 365,384 352,384 h -64 q -13,0 -22.5,9.5 Q 256,403 256,416 v 64 q 0,13 9.5,22.5 9.5,9.5 22.5,9.5 h 64 q 13,0 22.5,-9.5 Q 384,493 384,480 z m 256,0 v -64 q 0,-13 -9.5,-22.5 Q 621,384 608,384 h -64 q -13,0 -22.5,9.5 Q 512,403 512,416 v 64 q 0,13 9.5,22.5 9.5,9.5 22.5,9.5 h 64 q 13,0 22.5,-9.5 Q 640,493 640,480 z M 384,736 v -64 q 0,-13 -9.5,-22.5 Q 365,640 352,640 h -64 q -13,0 -22.5,9.5 Q 256,659 256,672 v 64 q 0,13 9.5,22.5 9.5,9.5 22.5,9.5 h 64 q 13,0 22.5,-9.5 Q 384,749 384,736 z m 768,-512 v -64 q 0,-13 -9.5,-22.5 Q 1133,128 1120,128 h -64 q -13,0 -22.5,9.5 -9.5,9.5 -9.5,22.5 v 64 q 0,13 9.5,22.5 9.5,9.5 22.5,9.5 h 64 q 13,0 22.5,-9.5 9.5,-9.5 9.5,-22.5 z M 896,480 v -64 q 0,-13 -9.5,-22.5 Q 877,384 864,384 h -64 q -13,0 -22.5,9.5 Q 768,403 768,416 v 64 q 0,13 9.5,22.5 9.5,9.5 22.5,9.5 h 64 q 13,0 22.5,-9.5 Q 896,493 896,480 z M 640,736 v -64 q 0,-13 -9.5,-22.5 Q 621,640 608,640 h -64 q -13,0 -22.5,9.5 Q 512,659 512,672 v 64 q 0,13 9.5,22.5 9.5,9.5 22.5,9.5 h 64 q 13,0 22.5,-9.5 Q 640,749 640,736 z M 384,992 v -64 q 0,-13 -9.5,-22.5 Q 365,896 352,896 h -64 q -13,0 -22.5,9.5 Q 256,915 256,928 v 64 q 0,13 9.5,22.5 9.5,9.5 22.5,9.5 h 64 q 13,0 22.5,-9.5 9.5,-9.5 9.5,-22.5 z m 768,-512 v -64 q 0,-13 -9.5,-22.5 Q 1133,384 1120,384 h -64 q -13,0 -22.5,9.5 -9.5,9.5 -9.5,22.5 v 64 q 0,13 9.5,22.5 9.5,9.5 22.5,9.5 h 64 q 13,0 22.5,-9.5 9.5,-9.5 9.5,-22.5 z M 896,736 v -64 q 0,-13 -9.5,-22.5 Q 877,640 864,640 h -64 q -13,0 -22.5,9.5 Q 768,659 768,672 v 64 q 0,13 9.5,22.5 9.5,9.5 22.5,9.5 h 64 q 13,0 22.5,-9.5 Q 896,749 896,736 z M 640,992 v -64 q 0,-13 -9.5,-22.5 Q 621,896 608,896 h -64 q -13,0 -22.5,9.5 Q 512,915 512,928 v 64 q 0,13 9.5,22.5 9.5,9.5 22.5,9.5 h 64 q 13,0 22.5,-9.5 9.5,-9.5 9.5,-22.5 z m -256,256 v -64 q 0,-13 -9.5,-22.5 Q 365,1152 352,1152 h -64 q -13,0 -22.5,9.5 -9.5,9.5 -9.5,22.5 v 64 q 0,13 9.5,22.5 9.5,9.5 22.5,9.5 h 64 q 13,0 22.5,-9.5 9.5,-9.5 9.5,-22.5 z m 768,-512 v -64 q 0,-13 -9.5,-22.5 Q 1133,640 1120,640 h -64 q -13,0 -22.5,9.5 -9.5,9.5 -9.5,22.5 v 64 q 0,13 9.5,22.5 9.5,9.5 22.5,9.5 h 64 q 13,0 22.5,-9.5 9.5,-9.5 9.5,-22.5 z M 896,992 v -64 q 0,-13 -9.5,-22.5 Q 877,896 864,896 h -64 q -13,0 -22.5,9.5 Q 768,915 768,928 v 64 q 0,13 9.5,22.5 9.5,9.5 22.5,9.5 h 64 q 13,0 22.5,-9.5 9.5,-9.5 9.5,-22.5 z m -256,256 v -64 q 0,-13 -9.5,-22.5 Q 621,1152 608,1152 h -64 q -13,0 -22.5,9.5 -9.5,9.5 -9.5,22.5 v 64 q 0,13 9.5,22.5 9.5,9.5 22.5,9.5 h 64 q 13,0 22.5,-9.5 9.5,-9.5 9.5,-22.5 z m 512,-256 v -64 q 0,-13 -9.5,-22.5 Q 1133,896 1120,896 h -64 q -13,0 -22.5,9.5 -9.5,9.5 -9.5,22.5 v 64 q 0,13 9.5,22.5 9.5,9.5 22.5,9.5 h 64 q 13,0 22.5,-9.5 9.5,-9.5 9.5,-22.5 z m -256,256 v -64 q 0,-13 -9.5,-22.5 Q 877,1152 864,1152 h -64 q -13,0 -22.5,9.5 -9.5,9.5 -9.5,22.5 v 64 q 0,13 9.5,22.5 9.5,9.5 22.5,9.5 h 64 q 13,0 22.5,-9.5 9.5,-9.5 9.5,-22.5 z m 256,0 v -64 q 0,-13 -9.5,-22.5 -9.5,-9.5 -22.5,-9.5 h -64 q -13,0 -22.5,9.5 -9.5,9.5 -9.5,22.5 v 64 q 0,13 9.5,22.5 9.5,9.5 22.5,9.5 h 64 q 13,0 22.5,-9.5 9.5,-9.5 9.5,-22.5 z M 896,-128 h 384 V 1408 H 128 V -128 H 512 V 96 q 0,13 9.5,22.5 9.5,9.5 22.5,9.5 h 320 q 13,0 22.5,-9.5 Q 896,109 896,96 v -224 z m 512,1600 V -192 q 0,-26 -19,-45 -19,-19 -45,-19 H 64 q -26,0 -45,19 -19,19 -19,45 v 1664 q 0,26 19,45 19,19 45,19 h 1280 q 26,0 45,-19 19,-19 19,-45 z" />
  </g>
</svg>
